# xmcd
#
# Track frame offsets:
#	150
#	11355
#	23888
#	35693
#	48218
#	58673
#	69968
#	83363
#	94876
#	105466
#	119139
#	132737
#
# Disc length: 1885 seconds
#
# Revision: 1
# Processed by: cddbd v1.5.2PL0 Copyright (c) Steve Scherf et al.
# Submitted via: audiograbber 1.83.01
#
DISCID=9a075b0c
DTITLE=Chubby Wise - Nuff Sed
DYEAR=1969
DGENRE=Bluegrass
TTITLE0=Orange Blossom Special
TTITLE1=3 O'clock In The Morning
TTITLE2=Stone Rag
TTITLE3=Up A Lazy River
TTITLE4=Down Yonder
TTITLE5=Red Wing
TTITLE6=Maiden's Prayer
TTITLE7=Chubby's Horn Pipe
TTITLE8=Danny Boy
TTITLE9=Daddy Blues
TTITLE10=Sweet Bunch Of Daisies
TTITLE11=Cracklin' Hen
EXTD=I made this CD from one of my LP's 
EXTT0=
EXTT1=
EXTT2=
EXTT3=
EXTT4=
EXTT5=
EXTT6=
EXTT7=
EXTT8=
EXTT9=
EXTT10=
EXTT11=
PLAYORDER=
